<svg version="1.2" xmlns="http://www.w3.org/2000/svg" viewBox="0 0 1533 389" width="1533" height="389">
	<title>bdc_color_1x-svg</title>
	<style>
		.s0 { fill: #ef7e19 } 
		.s1 { fill: #f6b881 } 
		.s2 { fill: #cccccc } 
	</style>
	<g id="Layer">
		<g id="logo-orangeAsset-2">
			<path id="Rectangle" class="s0" d="m287.7 125.2h74.2v255.5h-74.2z"/>
			<path id="Layer" class="s0" d="m417.8 4.7h74.2v376h-74.2z"/>
			<path id="Layer" class="s0" d="m547.8 4.7h74.2v376h-74.2z"/>
			<path id="Path" class="s0" d="m356.5 12.9c8.6 8.6 13.3 19.9 13.3 31.6 0 24.5-20 44.4-44.6 44.4-24.6 0-44.5-19.9-44.5-44.4 0-24.6 19.9-44.5 44.5-44.5 11.7 0 23.1 4.7 31.3 12.9z"/>
			<path id="Layer" class="s1" d="m94.4 104.5v-96.7l99.2 72.9c20.7 15.3 34.8 37.1 40.2 62.1-22.2-26.6-52.3-37.9-72.6-38.3z"/>
			<path id="Shape" fill-rule="evenodd" class="s0" d="m74.5 125.6h80.8c43.8 0 78.9 35.1 78.9 78.4v97.9c0 21.1-8.2 41-23 55.8-14.8 14.8-35.2 23-55.9 23h-154.6v-376h73.8zm85.1 86.6c-0.7-11.7-10.5-20.7-22.2-20.7h-63.3v121.7h63.3c11.7 0 21.5-9 22.2-20.7z"/>
			<path id="Layer" class="s2" d="m833.7 388.1c-75.8 0-94.5-47.2-94.5-88.9v-91.7c0-50.7 26.9-89.3 93.7-89.3 65.6 0 89.1 31.2 89.1 73.3v21.5h-38.7v-18c0-24.9-12.9-44-49.2-44-42.2 0-54.7 22.2-54.7 56.5v85.1c0 33.9 14.1 61.2 55.5 61.2 36.3 0 49.2-17.2 49.2-42.5v-17.2h38.7v18.7c-0.8 42.9-26.6 75.3-89.1 75.3z"/>
			<path id="Layer" fill-rule="evenodd" class="s2" d="m1055.5 388.1c-74.6 0-96-43.3-96-92v-84.3c0-44.9 23-93.6 99.2-93.6 76.1 0 96.8 47.2 96.8 91.3v85.8c0 44.4-18.7 92.8-100 92.8zm3.2-33.9c44.1 0 57-26.9 57-61.3v-81.1c0-32-11.4-59.3-57-59.3-44.2 0-59.4 26.9-59.4 60.9v79.2c0 38.2 14.4 61.6 59.4 61.6z"/>
			<path id="Layer" class="s2" d="m1199.6 380.7v-255.1h35.2l1.2 35.5c11.3-21.8 35.9-42.5 75.3-42.5 40.3 0 61 20.7 69.5 44.8 15.3-28.4 45-45.6 77-44.8 57.4 0 74.6 40.9 74.6 80.7v181.4h-39.1v-170.8c0-31.6-8.2-57-46.5-57-15.6-0.8-30.8 4.7-42.1 15.2-11.4 10.6-18.4 25.4-18.8 41v172h-39.8v-175.1c0-27.7-8.2-53.5-46.5-53.5-15.6-0.8-30.8 5.1-42.2 15.6-11.3 10.6-18.3 25.4-18.7 40.6v172z"/>
			<ellipse id="Oval" class="s2" cx="686.1" cy="360.8" rx="27.7" ry="27.7"/>
		</g>
	</g>
</svg>