<?xml version="1.0" encoding="utf-8"?>
<!-- Generator: Adobe Illustrator 19.0.0, SVG Export Plug-In . SVG Version: 6.00 Build 0)  -->
<svg version="1.1" id="layer" xmlns="http://www.w3.org/2000/svg" xmlns:xlink="http://www.w3.org/1999/xlink" x="0px" y="0px"
	 viewBox="-153 -46 652 652" style="enable-background:new -153 -46 652 652;" xml:space="preserve">
<style type="text/css">
	.st0{fill:#2ECB70;}
	.st1{fill:#2EAAE2;}
	.st2{fill:#FFC600;}
	.st3{fill:#313E48;}
</style>
<path class="st0" d="M-58,239.7h50.5c3.3,0,5.9,2.7,5.9,5.9v50.5c0,3.3-2.7,5.9-5.9,5.9H-58c-3.3,0-5.9-2.7-5.9-5.9v-50.5
	C-64,242.3-61.3,239.7-58,239.7z"/>
<path class="st1" d="M10.3,239.7h50.5c3.3,0,5.9,2.7,5.9,5.9v50.5c0,3.3-2.7,5.9-5.9,5.9H10.3c-3.3,0-5.9-2.7-5.9-5.9v-50.5
	C4.3,242.3,7,239.7,10.3,239.7z"/>
<path class="st2" d="M-126.1,239.7h50.5c3.3,0,5.9,2.7,5.9,5.9v50.5c0,3.3-2.7,5.9-5.9,5.9h-50.5c-3.3,0-5.9-2.7-5.9-5.9v-50.5
	C-132,242.3-129.3,239.7-126.1,239.7z"/>
<path d="M72.4,302h43.1v-12.8H88.1v-12.2h23.2V264H88.1v-11.6h27.3v-12.8H72.4V302z M200.4,252.7c-6.5,0-11.3,2.1-14.9,7.4h-0.3
	l-1.8-5.9h-11.6v65h14.9v-20.5h0.3c2.7,3.3,7.1,4.8,12.8,4.8c13.1,0,22.6-11.3,22.6-24.7v-1.8C222.1,261.9,211.4,252.7,200.4,252.7z
	 M196.5,291c-6.8,0-10.1-5.9-10.1-13.1c0-7.1,3.3-12.8,10.1-12.8s10.1,5.9,10.1,13.1C206.3,285.4,203.3,291,196.5,291L196.5,291z
	 M273.1,276.5c0-16-11.3-23.8-23.8-23.8c-13.7,0-24.7,9.8-24.7,25v1.5c0,15.4,11.9,24.7,25.2,24.7c11,0,20.8-5.3,23.2-16.3h-14
	c-1.5,3.9-4.8,5-8.6,5c-6.2,0-9.8-4.5-10.4-10.4h33C272.9,280.6,273.1,278.3,273.1,276.5z M240.2,272c0.9-5,3.6-8.9,9.5-8.9
	c5,0,8.3,3.6,8.3,8.9H240.2z M304.6,252.7c-6.2,0-10.7,2.4-14.3,7.7h-0.3l-1.8-6.2h-11.6V302h15.1v-27.9c0-6.2,3-9.2,7.7-9.2
	c4.2,0,7.4,2.7,7.4,9.2V302h15.1v-32.4C321.9,260.4,316.2,252.7,304.6,252.7z M344.7,271.1c-2.7-0.6-4.2-1.8-4.2-4.5
	c0-2.1,1.5-3.9,5-3.9c3.9,0,5.6,1.8,5.6,5h13.7v-1.2c0-10.1-9.2-14.3-19.6-14.3c-9.2,0-19.6,3.9-19.6,15.1v0.9
	c0,3.3,1.2,6.5,3.6,8.9c4.8,4.8,12.2,5.3,16.9,6.5c4.2,1.2,5,3,5,5c0,3-2.4,4.5-5.6,4.5c-4.2,0-6.5-2.4-6.8-6.8h-13.7v1.2
	c0.6,11.6,9.5,16,20.5,16c9.8,0,20.5-4.5,20.5-15.7v-0.9c0-3.3-1.2-6.5-3.3-8.9C358.1,272.9,350.7,272,344.7,271.1z M368.8,253.9
	h15.1v47.8h-15.1V253.9z M168.6,253.9H152l-8,12.2l-8-12.2h-17.2l16.3,22.9L116.3,302h16.9l10.1-14.6l10.1,14.6h17.2l-18.4-25.8
	L168.6,253.9z M376.5,230.7c-5,0-8.9,4.2-8.9,8.9c0,4.8,4.2,8.9,8.9,8.9c5,0,8.9-4.2,8.9-8.9l0,0
	C385.4,234.9,381.3,230.7,376.5,230.7L376.5,230.7z M411.3,253.9v-1.5c0-4.2,2.7-8,7.4-8.3c0.6,0,4.5,0,4.5,0v-13.4h-5.6
	c-13.1,0.3-21.4,10.1-21.4,22.6v0.6h-8.9v11.6h8.9V302h15.1v-36.5h9.8l12.8,33.3l-8.6,20.5H441l27-65.3h-15.7l-10.4,28.8l-9.5-28.8
	H411.3z M72.4,302h43.1v-12.8H88.1v-12.2h23.2V264H88.1v-11.6h27.3v-12.8H72.4V302z M200.4,252.7c-6.5,0-11.3,2.1-14.9,7.4h-0.3
	l-1.8-5.9h-11.6v65h14.9v-20.5h0.3c2.7,3.3,7.1,4.8,12.8,4.8c13.1,0,22.6-11.3,22.6-24.7v-1.8C222.1,261.9,211.4,252.7,200.4,252.7z
	 M196.5,291c-6.8,0-10.1-5.9-10.1-13.1c0-7.1,3.3-12.8,10.1-12.8s10.1,5.9,10.1,13.1C206.3,285.4,203.3,291,196.5,291L196.5,291z
	 M273.1,276.5c0-16-11.3-23.8-23.8-23.8c-13.7,0-24.7,9.8-24.7,25v1.5c0,15.4,11.9,24.7,25.2,24.7c11,0,20.8-5.3,23.2-16.3h-14
	c-1.5,3.9-4.8,5-8.6,5c-6.2,0-9.8-4.5-10.4-10.4h33C272.9,280.6,273.1,278.3,273.1,276.5z M240.2,272c0.9-5,3.6-8.9,9.5-8.9
	c5,0,8.3,3.6,8.3,8.9H240.2z M304.6,252.7c-6.2,0-10.7,2.4-14.3,7.7h-0.3l-1.8-6.2h-11.6V302h15.1v-27.9c0-6.2,3-9.2,7.7-9.2
	c4.2,0,7.4,2.7,7.4,9.2V302h15.1v-32.4C321.9,260.4,316.2,252.7,304.6,252.7z M344.7,271.1c-2.7-0.6-4.2-1.8-4.2-4.5
	c0-2.1,1.5-3.9,5-3.9c3.9,0,5.6,1.8,5.6,5h13.7v-1.2c0-10.1-9.2-14.3-19.6-14.3c-9.2,0-19.6,3.9-19.6,15.1v0.9
	c0,3.3,1.2,6.5,3.6,8.9c4.8,4.8,12.2,5.3,16.9,6.5c4.2,1.2,5,3,5,5c0,3-2.4,4.5-5.6,4.5c-4.2,0-6.5-2.4-6.8-6.8h-13.7v1.2
	c0.6,11.6,9.5,16,20.5,16c9.8,0,20.5-4.5,20.5-15.7v-0.9c0-3.3-1.2-6.5-3.3-8.9C358.1,272.9,350.7,272,344.7,271.1z M368.8,253.9
	h15.1v47.8h-15.1V253.9z M168.6,253.9H152l-8,12.2l-8-12.2h-17.2l16.3,22.9L116.3,302h16.9l10.1-14.6l10.1,14.6h17.2l-18.4-25.8
	L168.6,253.9z M376.5,230.7c-5,0-8.9,4.2-8.9,8.9c0,4.8,4.2,8.9,8.9,8.9c5,0,8.9-4.2,8.9-8.9l0,0
	C385.4,234.9,381.3,230.7,376.5,230.7L376.5,230.7z M411.3,253.9v-1.5c0-4.2,2.7-8,7.4-8.3c0.6,0,4.5,0,4.5,0v-13.4h-5.6
	c-13.1,0.3-21.4,10.1-21.4,22.6v0.6h-8.9v11.6h8.9V302h15.1v-36.5h9.8l12.8,33.3l-8.6,20.5H441l27-65.3h-15.7l-10.4,28.8l-9.5-28.8
	H411.3z"/>
<path class="st3" d="M-34,264c0,1.5-0.6,2.7-1.8,3.6l-1.2,0.9c-0.9,0.6-1.5,1.5-1.5,2.4v19c0,1.5-1.2,2.4-2.4,2.4l0,0h-0.9
	c-1.5,0-2.4-1.2-2.4-2.4l0,0v-19c0-0.9-0.6-1.8-1.5-2.4l-1.2-0.9c-1.2-0.6-1.8-2.1-1.8-3.6l1.2-13.7c0-0.6,0.3-0.9,0.9-0.9h0.6
	c0.6,0,0.9,0.3,0.9,0.9l0,0v10.4c0,0.3,0.3,0.6,0.6,0.6l0,0h0.6c0.3,0,0.6-0.3,0.6-0.6l0.3-10.4c0-0.6,0.3-0.9,0.9-0.9h0.9
	c0.6,0,0.9,0.3,0.9,0.9l0.6,10.4c0,0.3,0.3,0.6,0.6,0.6h0.9c0.3,0,0.6-0.3,0.6-0.6v-10.4c0-0.6,0.3-0.9,0.9-0.9h0.6
	c0.6,0,0.9,0.3,0.9,0.9L-34,264z M-22.4,249.5c-2.4,0.3-4.5,2.4-4.5,5V270c0,1.8,1.2,3.6,2.7,4.5c0.6,0.3,0.9,0.9,1.2,1.5v13.7
	c0,1.5,1.2,2.4,2.4,2.4l0,0h0.9c1.5,0,2.4-1.2,2.4-2.4l0,0v-35c0-2.7-2.1-4.8-4.8-4.8C-22.1,249.5-22.4,249.5-22.4,249.5z
	 M50.4,288.7c0.3-0.3,0.6-0.9,0.3-1.5c-0.6-3-3.6-16.3-4.5-20.5c-0.3-0.6,0-1.2,0.3-1.5c1.5-1.5,7.4-7.1,8.9-8.9
	c1.5-1.5,1.2-3.6-0.3-5c-1.5-1.2-3.6-1.2-5,0c-1.8,1.8-7.4,7.4-8.9,8.9c-0.3,0.3-0.9,0.6-1.5,0.3c-4.2-0.9-17.5-3.9-20.5-4.5
	c-0.6-0.3-1.2,0-1.5,0.3c-0.6,0.9-1.2,1.5-2.1,2.4c-0.6,0.9-0.6,1.5,0.3,2.1c3.6,1.8,13.7,6.5,15.1,7.4c0.9,0.6,1.2,0.9,0.3,1.8
	c-1.5,2.1-4.2,5-5.9,7.1c0,0.3-0.6,0.9-1.2,0.9c-1.5-0.3-3-0.3-4.2-0.6c-0.6,0-1.2,0-1.5,0.6c-0.6,0.6-0.9,0.9-1.5,1.5
	s-0.6,1.5,0.3,1.8c1.5,0.9,3.3,1.8,4.8,2.7c0.3,0,0.3,0.3,0.6,0.3c0.3,0.3,0.3,0.3,0.3,0.6c0.9,1.5,1.8,3.3,2.7,4.8
	c0.3,0.9,1.2,0.9,1.8,0.3c0.6-0.6,0.9-0.9,1.5-1.5c0.3-0.3,0.6-0.9,0.6-1.5c-0.3-1.2-0.3-2.7-0.6-4.2c-0.3-0.9,0.3-1.2,0.9-1.8
	c2.1-1.8,5-4.2,7.1-5.9c0.9-0.6,1.2-0.6,1.8,0.3c0.9,1.5,5.3,11.6,7.4,15.1c0.6,0.9,1.2,1.2,2.1,0.3S49.5,289.6,50.4,288.7z
	 M-77.9,263.7c-0.3-0.6-0.9-0.6-1.5-0.6c-0.9,0-1.8,0-2.7,0c-0.6,0-0.9-0.3-1.2-0.9c-0.6-1.8-1.8-4.5-2.7-6.2
	c-0.9-2.1-2.7-3.9-5-3.9c-3.3,0-16.9,0-20.2,0c-2.1,0.3-3.9,2.1-4.8,3.9s-1.8,4.2-2.7,6.2c0,0.6-0.3,0.9-0.9,0.9c-0.9,0-1.8,0-2.7,0
	c-0.6,0-1.2,0-1.5,0.6c-0.3,0.6-0.3,1.5,0.3,2.1c0.6,0.6,1.2,0.9,2.1,0.9s0.9,0.6,0.6,1.2c-0.9,1.8-1.2,6.8-1.2,9.5c0,3,0,6.5,0,9.8
	c0,1.8,0.6,2.1,2.1,2.1c1.5,0,3.9,0,5.6,0c1.2,0,1.8-0.9,1.8-2.1c0-0.9,0-2.4,0-3.3s0-1.5,1.2-1.5h20.8c0.9,0,1.2,0.3,1.2,1.5
	c0,0.9,0,2.4,0,3.3c0,1.2,0.6,2.1,1.8,2.1c1.5,0,4.2,0,5.6,0c1.5,0,2.1-0.6,2.1-2.1c0-3,0-6.5,0-9.8c0-2.7-0.3-7.7-1.2-9.5
	c-0.3-0.6,0-0.9,0.6-1.2s1.5-0.3,2.1-0.9C-77.6,265.2-77.6,264.6-77.9,263.7z M-114.5,277.1c-1.8,0-3-1.2-3-2.7v-0.3
	c0-1.8,1.2-3.3,3-3.3c1.8,0,3.3,1.5,3.3,3.3C-111.2,275.6-112.7,276.8-114.5,277.1C-114.2,277.1-114.5,277.1-114.5,277.1z
	 M-114.2,267c-1.8,0-1.8,0-1.2-2.1c0.6-2.1,1.2-3.9,1.8-5.6c0.9-2.4,1.8-3,3.9-3h17.2c2.1,0,3,0.9,3.9,3c0.6,1.8,1.2,3.9,1.8,5.6
	c0.6,2.1,0.6,2.1-1.2,2.1H-114.2z M-87.1,277.1c-1.8,0-3-1.2-3-3v-0.3c0-1.8,1.2-3.3,3-3.3c2.1,0,3.3,1.2,3,3.3
	C-84.2,275.6-85.4,276.8-87.1,277.1L-87.1,277.1L-87.1,277.1z"/>
</svg>
