<?xml version="1.0" encoding="utf-8"?>
<!-- Generator: Adobe Illustrator 19.2.1, SVG Export Plug-In . SVG Version: 6.00 Build 0)  -->
<svg version="1.1" id="layer" xmlns="http://www.w3.org/2000/svg" xmlns:xlink="http://www.w3.org/1999/xlink" x="0px" y="0px"
	 viewBox="0 0 652 652" style="enable-background:new 0 0 652 652;" xml:space="preserve">
<style type="text/css">
	.st0{fill:#324249;}
	.st1{fill:#C23522;}
	.st2{fill:#F3F3F5;}
</style>
<g>
	<path class="st0" d="M219.3,353.3c-5-1.7-9.3-4.5-13.2-8.2l3.1-5.6c4.1,3.7,8.3,6.2,12.4,7.8c4.1,1.6,9.1,2.3,14.9,2.3
		c7,0,12.2-1.4,16.1-4.3c3.9-2.9,5.8-6.8,5.8-12c0-3.1-1-5.4-2.7-7.4c-1.9-1.9-4.3-3.3-7.2-4.5c-2.9-1-6.8-2.1-11.5-3.3
		c-6.4-1.4-11.5-2.9-15.5-4.3c-3.9-1.6-7.2-3.7-9.9-6.8c-2.7-2.9-4.1-7-4.1-12c0-4.7,1.2-8.7,3.7-12.2c2.3-3.5,5.8-6.2,10.3-8.2
		c4.5-1.9,9.5-2.9,15.5-2.9c5.6,0,10.9,1,15.5,2.7c4.9,1.7,8.9,4.5,12.4,8l-3.1,5.6c-3.9-3.5-7.8-6-11.8-7.6
		c-3.9-1.6-8.3-2.3-13.2-2.3c-7,0-12.2,1.6-16.1,4.5s-5.8,7-5.8,12.4c0,4.7,1.7,8,5,10.3c3.3,2.1,8.3,4.1,14.9,5.6l3.1,0.8
		c6.2,1.6,11.3,2.9,14.9,4.3c3.7,1.4,6.8,3.3,9.3,6.2c2.5,2.7,3.9,6.4,3.9,11.1c0,4.5-1.2,8.5-3.7,11.8c-2.3,3.5-5.8,6-10.3,8
		c-4.5,1.9-9.5,2.9-15.3,2.9C230,356,224.2,355,219.3,353.3z"/>
	<path class="st0" d="M332.9,272.9h7.2V355h-7.2v-38.4h-45.4v38.6h-7.2v-82.3h7.2v37.3h45.2v-37.3H332.9z"/>
	<path class="st0" d="M357.7,355v-82.1h50.7v6.2h-43.5v31.1h41.2v6.2h-41.2v32.4h43.5v6.2H357.7z"/>
	<path class="st0" d="M426.1,354.8v-82.1h50.7v6.2h-43.5V310h41.2v6.2h-41.2v32.4h43.5v6.2H426.1z"/>
	<path class="st0" d="M517.9,354.4v-75.9h-26.8v-6.2h60.8v6.2h-26.8v75.9H517.9z"/>
	<path class="st0" d="M574.6,352.7c-5-1.7-9.3-4.5-13.2-8.2l3.1-5.6c4.1,3.7,8.3,6.2,12.4,7.8c4.1,1.6,9.1,2.3,14.9,2.3
		c7,0,12.2-1.4,16.1-4.3c3.9-2.9,5.8-6.8,5.8-12c0-3.1-1-5.4-2.7-7.4c-1.9-1.9-4.3-3.3-7.2-4.5c-2.9-1-6.8-2.1-11.5-3.3
		c-6.4-1.4-11.5-2.9-15.5-4.3c-3.9-1.6-7.2-3.7-9.9-6.8c-2.7-2.9-4.1-7-4.1-12c0-4.7,1.2-8.7,3.7-12.2c2.3-3.5,5.8-6.2,10.3-8.2
		c4.5-1.9,9.5-2.9,15.5-2.9c5.6,0,10.9,1,15.5,2.7c4.9,1.7,8.9,4.5,12.4,8l-3.1,5.6c-3.9-3.5-7.8-6-11.8-7.6
		c-3.9-1.6-8.3-2.3-13.2-2.3c-7,0-12.2,1.6-16.1,4.5c-3.9,2.9-5.8,7-5.8,12.4c0,4.7,1.7,8,5,10.3c3.3,2.1,8.3,4.1,14.9,5.6l3.1,0.8
		c6.2,1.6,11.3,2.9,14.9,4.3c3.7,1.4,6.8,3.3,9.3,6.2c2.5,2.7,3.9,6.4,3.9,11.1c0,4.5-1.2,8.5-3.7,11.8c-2.3,3.5-5.8,6-10.3,8
		c-4.5,1.9-9.5,2.9-15.3,2.9C585.3,355.4,579.4,354.4,574.6,352.7z"/>
</g>
<g>
	<g>
		<g>
			<path class="st1" d="M99.2,230c-41.3,2.5-74.9,36.1-77.5,77.5c-2.9,48.1,35.1,88.1,82.7,88.1c45.8,0,82.9-37.1,82.9-82.9
				C187.3,265.1,147.3,226.9,99.2,230z"/>
		</g>
		<path class="st2" d="M158.8,293.9c-1.9,2.1-4.9,3.3-8.3,3.3h-34.4v53.8c0,3.5-1.2,6.4-3.3,8.3c-2.1,1.9-4.9,3.1-8.2,3.1
			c-3.1,0-5.8-1-8-2.9c-2.1-1.9-3.3-4.9-3.3-8.3v-53.8H59c-3.5,0-6.4-1.2-8.3-3.3c-1.9-2.1-3.1-4.9-3.1-8.2s1-5.8,3.1-8.2
			c1.9-2.1,4.9-3.3,8.3-3.3h91.2c3.5,0,6.4,1.2,8.3,3.3c1.9,2.1,3.1,4.9,3.1,8.2C161.7,289,160.7,291.7,158.8,293.9z"/>
	</g>
</g>
<g>
	<path class="st0" d="M366.3,403.9L366.3,403.9v2.9h-3.5v-29.3h3.7v13.8h0.2c1.2-1.7,3.5-3.3,6.6-3.3c5.4,0,9.1,4.3,9.1,9.7
		s-3.7,9.7-9.3,9.7C370.2,407.4,367.6,406.1,366.3,403.9L366.3,403.9z M378.3,397.5c0-3.5-2.1-6.6-6.2-6.6c-3.7,0-6.2,3.1-6.2,6.6
		s2.5,6.6,6.2,6.6C376.2,404.3,378.3,401,378.3,397.5L378.3,397.5z M388.4,388.4l5.6,14.4l0,0l5-14.4h3.9l-8.7,22.7
		c-1.2,3.1-2.7,5-6.4,5c-0.8,0-1.6,0-2.3-0.2l0.4-3.3c0.6,0.2,1.2,0.4,1.7,0.4c1.9,0,2.7-1.2,3.5-3.1l1.2-3.1l-8-18.4L388.4,388.4
		L388.4,388.4z M431.1,404.1L431.1,404.1c-1.4,2.1-4.1,3.3-6.6,3.3c-5.6,0-9.3-4.3-9.3-9.7s3.7-9.7,9.3-9.7c2.9,0,5.4,1.4,6.6,3.3
		h0.2v-2.9h3.5v27.8h-3.7V404.1L431.1,404.1z M419.1,397.5c0,3.5,2.1,6.6,6,6.6c3.7,0,6.2-3.1,6.2-6.6s-2.5-6.6-6.2-6.6
		C421.2,390.9,419.1,394.2,419.1,397.5L419.1,397.5z M457.5,406.9H454c0-1-0.2-2.3-0.2-3.1l0,0c-1,1.9-3.3,3.5-6,3.5
		c-4.7,0-6.8-3.3-6.8-7.6v-11.5h3.7v10.5c0,3.1,0.8,5.6,4.3,5.6c2.9,0,4.9-2.3,4.9-6v-9.7h3.7V403
		C457.3,403.9,457.3,405.7,457.5,406.9L457.5,406.9z M467.4,388.4v18.4h-3.7v-18.4H467.4L467.4,388.4z M468,381.8
		c0,1.4-1.2,2.3-2.5,2.3s-2.3-1-2.3-2.3c0-1.4,1.2-2.3,2.3-2.3C466.8,379.5,468,380.5,468,381.8L468,381.8z M489.2,390.9l-2.7,2.1
		c-0.8-1.2-2.5-2.1-4.3-2.1c-3.9,0-6,3.1-6,6.6s2.1,6.6,6,6.6c1.9,0,3.5-0.8,4.5-1.9l2.7,2.3c-1.6,1.7-3.9,2.9-6.8,2.9
		c-5.6,0-9.9-3.9-9.9-9.7s4.3-9.7,9.9-9.7C484.9,388,487.8,389,489.2,390.9L489.2,390.9z M496.5,377.5v19h0.2l7.8-8h4.9l-8.5,8.3
		l9.3,10.1h-5l-8.3-9.5h-0.2v9.5h-3.7v-29.5H496.5L496.5,377.5z M517.1,403.9L517.1,403.9v2.9h-3.5v-29.3h3.7v13.8h0.2
		c1.2-1.7,3.5-3.3,6.6-3.3c5.4,0,9.1,4.3,9.1,9.7s-3.7,9.7-9.3,9.7C521,407.4,518.5,406.1,517.1,403.9L517.1,403.9z M529.2,397.5
		c0-3.5-2.1-6.6-6.2-6.6c-3.7,0-6.2,3.1-6.2,6.6s2.5,6.6,6.2,6.6C527,404.3,529.2,401,529.2,397.5L529.2,397.5z M556.7,397.5
		c0,5.6-4.3,9.7-9.9,9.7s-9.9-4.1-9.9-9.7s4.3-9.7,9.9-9.7C552.5,388,556.7,391.9,556.7,397.5L556.7,397.5z M552.8,397.5
		c0-3.5-2.1-6.6-6.2-6.6c-3.9,0-6.2,3.1-6.2,6.6s2.1,6.6,6.2,6.6C550.7,404.3,552.8,401,552.8,397.5L552.8,397.5z M580.4,397.5
		c0,5.6-4.3,9.7-9.9,9.7s-9.9-4.1-9.9-9.7s4.3-9.7,9.9-9.7S580.4,391.9,580.4,397.5L580.4,397.5z M576.5,397.5
		c0-3.5-2.1-6.6-6.2-6.6c-3.9,0-6.2,3.1-6.2,6.6s2.1,6.6,6.2,6.6C574.4,404.3,576.5,401,576.5,397.5L576.5,397.5z M589.1,377.5v19
		h0.2l7.8-8h4.9l-8.5,8.3l9.3,10.1h-5l-8.3-9.5h-0.2v9.5h-3.7v-29.5H589.1L589.1,377.5z M617.9,390.9l-2.5,2.1
		c-0.8-1.4-2.3-2.3-4.3-2.3c-1.7,0-3.5,0.6-3.5,2.3c0,1.6,1.4,2.1,4.3,2.7c3.5,0.8,6.2,2.1,6.2,5.4c0,4.3-3.7,6-7.4,6
		c-2.7,0-5.6-1.2-7.4-3.3l2.5-2.1c1,1.4,2.9,2.5,4.9,2.5c1.7,0,3.7-0.6,3.7-2.7c0-1.7-1.7-2.3-4.9-3.1c-2.5-0.6-5.4-1.6-5.4-5
		c0-3.9,3.5-5.6,7-5.6C613.8,388,616.5,389,617.9,390.9L617.9,390.9z"/>
</g>
</svg>
