<svg width="164" height="29" viewBox="0 0 164 29" fill="none" xmlns="http://www.w3.org/2000/svg">
<path d="M14.2776 22.9583H9.51837C9.18999 22.9583 8.92347 23.229 8.92347 23.5625C8.92347 23.896 9.18999 24.1667 9.51837 24.1667H14.2776C14.6059 24.1667 14.8725 23.896 14.8725 23.5625C14.8725 23.229 14.6059 22.9583 14.2776 22.9583ZM14.2776 25.375H9.51837C9.18999 25.375 8.92347 25.6457 8.92347 25.9792C8.92347 26.3127 9.18999 26.5833 9.51837 26.5833H14.2776C14.6059 26.5833 14.8725 26.3127 14.8725 25.9792C14.8725 25.6457 14.6059 25.375 14.2776 25.375ZM14.575 27.7917H9.22092L10.6344 28.7366C10.8176 28.9033 11.0865 29 11.3661 29H12.431C12.7094 29 12.9795 28.9033 13.1627 28.7366L14.575 27.7917ZM19.0367 11.1179C19.0367 15.4304 15.2127 18.3473 15.2127 21.75H8.58319C8.58319 18.3473 4.75919 15.4304 4.75919 11.1179C4.75919 6.61925 8.3262 4.14337 11.8944 4.14337C15.465 4.14337 19.0367 6.62167 19.0367 11.1179ZM23.7959 10.2829V11.9408H20.7762C20.8 11.6713 20.8214 11.3994 20.8214 11.1179C20.8214 10.8315 20.8012 10.5572 20.7798 10.2841H23.7959V10.2829ZM11.127 2.36471V0H12.7582V2.37317C12.4703 2.34658 12.1823 2.33087 11.8944 2.33087C11.6386 2.33087 11.3828 2.34296 11.127 2.36471ZM17.6958 4.23037L19.5638 2.12425L20.7762 3.2335L18.869 5.38071C18.5715 5.02183 18.1634 4.56871 17.6958 4.23037ZM4.91981 5.38071L3.01257 3.2335L4.22497 2.12425L6.09295 4.23037C5.62655 4.56871 5.21726 5.02183 4.91981 5.38071ZM3.0197 11.9408H0V10.2829H3.01613C2.99472 10.556 2.97449 10.8315 2.97449 11.1179C2.97449 11.3994 2.99591 11.6713 3.0197 11.9408Z" fill="#EE540C"/>
<path d="M27.9322 27.8336C31.1069 27.8336 33.28 26.1721 33.28 23.6513V23.5367C33.28 21.2641 31.6738 20.0991 28.4613 19.5453C25.8158 19.087 25.419 18.5522 25.419 17.6928V17.6546C25.419 16.6998 26.1559 16.0122 27.6677 16.0122C29.1794 16.0122 30.1242 16.6998 30.2754 18.0939H33.0532C32.8265 15.2865 30.7289 13.7778 27.7244 13.7778C24.7009 13.7778 22.66 15.3438 22.66 17.731V17.8456C22.66 19.9654 23.9261 21.2259 27.1952 21.837C29.803 22.3335 30.5211 22.811 30.5211 23.8231V23.8995C30.5211 25.0072 29.5762 25.5801 28.0078 25.5801C26.3071 25.5801 25.1733 24.8162 24.9843 23.1929H22.2065C22.3766 26.1149 24.5119 27.8336 27.9322 27.8336Z" fill="black"/>
<path d="M37.3924 27.5854V22.219C37.3924 20.4811 38.1483 19.6217 39.3388 19.6217C40.4348 19.6217 40.9261 20.3856 40.9261 21.8179V27.5854H43.5717V22.219C43.5717 20.5193 44.2708 19.6217 45.4613 19.6217C46.5385 19.6217 47.0865 20.3474 47.0865 21.7988V27.5854H49.732V21.2832C49.732 18.9915 48.7494 17.4828 46.4251 17.4828C45.0078 17.4828 43.9307 18.1894 43.2504 19.3352C42.778 18.0939 41.7765 17.4828 40.3214 17.4828C38.8097 17.4828 37.8459 18.3421 37.3735 19.2397L37.2979 17.731H34.7469V27.5854H37.3924Z" fill="black"/>
<path d="M54.4122 27.8336C55.8484 27.8336 56.9822 27.1461 57.568 26.0767L57.6624 27.5854H60.1001V20.863C60.1001 18.8005 58.5506 17.4828 55.9239 17.4828C53.3918 17.4828 51.6722 18.6668 51.521 20.7675H54.0154C54.1099 19.9272 54.7901 19.5071 55.8673 19.5071C57.02 19.5071 57.5491 20.0036 57.5491 20.8248V21.3978L53.9587 21.9134C52.1824 22.1617 51.1242 23.1547 51.1242 24.8353C51.1242 26.5732 52.4469 27.8336 54.4122 27.8336ZM55.2059 25.8284C54.2421 25.8284 53.6752 25.4082 53.6752 24.7016C53.6752 24.0141 54.091 23.6704 54.9035 23.5558L57.5491 23.1929V23.9759C57.5491 25.0645 56.4908 25.8284 55.2059 25.8284Z" fill="black"/>
<path d="M64.5565 27.5854V22.8301C64.5565 21.0922 65.4825 20.1373 67.2399 20.1373C67.4855 20.1373 67.7879 20.1564 67.9768 20.1755V17.6164C67.8257 17.5782 67.58 17.5591 67.391 17.5591C65.9549 17.5591 64.9911 18.4567 64.5187 19.6408L64.462 17.731H61.911V27.5854H64.5565Z" fill="black"/>
<path d="M74.2337 27.8336C74.8006 27.8336 75.5376 27.7381 75.9911 27.5854V25.5419C75.7266 25.6183 75.292 25.7329 74.8195 25.7329C73.7991 25.7329 73.4212 25.37 73.4212 24.5107V19.679H75.9533V17.731H73.4212V14.599H70.7756V17.731H68.9615V19.679H70.7756V24.7398C70.7756 26.7642 71.8905 27.8336 74.2337 27.8336Z" fill="black"/>
<path d="M83.1173 27.8336C85.725 27.8336 87.3502 25.7138 87.3502 22.7728V22.5245C87.3502 19.6217 85.7817 17.4828 83.1929 17.4828C81.7567 17.4828 80.7363 18.1703 80.1505 19.0488V13.4532H77.486V27.5854H79.9615L80.0371 26.0385C80.4717 26.917 81.5111 27.8336 83.1173 27.8336ZM82.3614 25.7711C80.8686 25.7711 80.056 24.7016 80.056 22.7728V22.5245C80.056 20.5957 80.8686 19.5262 82.3614 19.5262C83.8732 19.5262 84.6668 20.5957 84.6668 22.5245V22.7728C84.6668 24.7016 83.8732 25.7711 82.3614 25.7711Z" fill="black"/>
<path d="M93.5949 27.8336C96.6184 27.8336 98.6026 25.7711 98.6026 22.7728V22.5436C98.6026 19.5453 96.6184 17.4828 93.5949 17.4828C90.5715 17.4828 88.5873 19.5453 88.5873 22.5245V22.7728C88.5873 25.7711 90.5715 27.8336 93.5949 27.8336ZM93.5949 25.752C92.0454 25.752 91.2706 24.7016 91.2706 22.7728V22.5245C91.2706 20.6148 92.0454 19.5644 93.5949 19.5644C95.1445 19.5644 95.9193 20.6148 95.9193 22.5436V22.7728C95.9193 24.7016 95.1445 25.752 93.5949 25.752Z" fill="black"/>
<path d="M104.815 27.8336C107.838 27.8336 109.823 25.7711 109.823 22.7728V22.5436C109.823 19.5453 107.838 17.4828 104.815 17.4828C101.791 17.4828 99.8073 19.5453 99.8073 22.5245V22.7728C99.8073 25.7711 101.791 27.8336 104.815 27.8336ZM104.815 25.752C103.265 25.752 102.491 24.7016 102.491 22.7728V22.5245C102.491 20.6148 103.265 19.5644 104.815 19.5644C106.364 19.5644 107.139 20.6148 107.139 22.5436V22.7728C107.139 24.7016 106.364 25.752 104.815 25.752Z" fill="black"/>
<path d="M114.939 23.1356L117.773 27.5854H120.721L116.81 21.5123L120.57 17.731H117.471L114.013 21.2641V13.4532H111.367V27.5854H114.013V24.0714L114.939 23.1356Z" fill="black"/>
<path d="M125.21 27.8336C127.837 27.8336 129.5 26.535 129.5 24.587C129.5 22.8683 128.385 22.0089 125.739 21.5887C124.076 21.3214 123.585 20.9967 123.585 20.3856C123.585 19.7363 124.171 19.3543 125.078 19.3543C126.061 19.3543 126.722 19.8127 126.835 20.672H129.311C129.16 18.6477 127.629 17.4828 125.116 17.4828C122.735 17.4828 121.053 18.705 121.053 20.5575C121.053 22.3335 122.206 23.1356 124.7 23.5558C126.457 23.8613 126.911 24.2242 126.911 24.8353C126.911 25.5419 126.231 25.9239 125.229 25.9239C124.152 25.9239 123.415 25.4273 123.264 24.4534H120.732C120.902 26.5923 122.489 27.8336 125.21 27.8336Z" fill="black"/>
<path d="M135.998 27.8336C138.984 27.8336 141.062 26.2676 141.062 23.8804V23.6704C141.062 22.0089 139.947 20.863 138.511 20.4811C139.74 20.0418 140.59 18.9533 140.59 17.6164V17.4446C140.59 15.2292 138.606 13.7778 135.998 13.7778C133.296 13.7778 131.255 15.4775 131.141 18.113H133.806C133.882 16.7952 134.656 16.0313 136.017 16.0313C137.207 16.0313 137.944 16.7189 137.944 17.6546V17.8647C137.944 18.896 137.132 19.488 135.96 19.488H134.637V21.6078H135.979C137.34 21.6078 138.19 22.2953 138.19 23.4603V23.6704C138.19 24.7971 137.34 25.5228 135.96 25.5228C134.524 25.5228 133.711 24.7589 133.617 23.403H130.839C130.915 26.1339 132.899 27.8336 135.998 27.8336Z" fill="#EE540C"/>
<path d="M147.497 27.8336C150.407 27.8336 152.429 25.9239 152.429 23.2311V23.021C152.429 20.462 150.502 18.8196 148.121 18.8196C146.647 18.8196 145.513 19.4307 144.89 20.4429V20.0609C144.89 17.2345 145.891 16.0122 147.535 16.0122C148.669 16.0122 149.425 16.6234 149.652 17.6928H152.335C152.014 15.2674 150.2 13.7778 147.516 13.7778C144.304 13.7778 142.282 16.2032 142.282 20.5384V21.2259C142.282 25.4082 144.266 27.8336 147.497 27.8336ZM147.497 25.6183C146.156 25.6183 145.343 24.6634 145.343 23.3266V23.1356C145.343 21.8752 146.175 20.9776 147.478 20.9776C148.763 20.9776 149.576 21.8752 149.576 23.1165V23.3266C149.576 24.7016 148.801 25.6183 147.497 25.6183Z" fill="#EE540C"/>
<path d="M158.936 27.8336C162.413 27.8336 164 25.0645 164 20.9967V20.6148C164 16.5661 162.413 13.7778 158.936 13.7778C155.572 13.7778 153.89 16.5661 153.89 20.6148V20.9967C153.89 25.0645 155.572 27.8336 158.936 27.8336ZM158.936 25.561C157.311 25.561 156.763 24.1287 156.763 21.054V20.5957C156.763 17.5019 157.311 16.0504 158.936 16.0504C160.674 16.0504 161.128 17.5019 161.128 20.5957V21.054C161.128 24.1287 160.674 25.561 158.936 25.561Z" fill="#EE540C"/>
</svg>
