<?xml version="1.0" encoding="UTF-8"?>
<svg xmlns="http://www.w3.org/2000/svg" width="100" height="60" viewBox="0 0 100 60" fill="none">
  <g clip-path="url(#clip0_68_570)">
    <path d="M50.3656 3.315L35.2888 15.5625C32.7847 17.595 32.2989 21.2475 34.1975 23.8575C36.2082 26.64 40.1176 27.1875 42.8085 25.08L58.274 13.02C59.3654 12.1725 60.9202 12.36 61.7798 13.455C62.6394 14.55 62.4375 16.11 61.3462 16.9725L58.0947 19.5075L85.6919 45.0075H92.2025C96.3286 45.0075 99.6774 41.6475 99.6774 37.5075V17.505C99.6774 13.365 96.3286 10.005 92.2025 10.005H79.6372L79.0318 9.615L67.7223 2.3475C65.3378 0.8175 62.5497 0 59.7167 0C56.3231 0 53.0192 1.17 50.3731 3.315H50.3656Z" fill="url(#paint0_linear_68_570)"></path>
    <path d="M92.2025 45.0075C96.3286 45.0075 99.6774 41.6475 99.6774 37.5075V17.505C99.6774 13.365 96.3286 10.005 92.2025 10.005V45.0075Z" fill="#0E3F66"></path>
    <path d="M53.9162 22.755L45.8658 29.04C40.9623 32.8875 33.8462 31.8825 30.1686 26.82C26.7077 22.0575 27.5823 15.3975 32.1494 11.6925L45.1034 1.16996C43.2945 0.40496 41.351 0.0149597 39.3701 0.0149597C36.44 -4.03272e-05 33.5921 0.87746 31.1478 2.49746L19.9355 9.99746H7.47487C3.34874 9.99746 0 13.3575 0 17.505V37.5075C0 41.6475 3.34874 45.0075 7.47487 45.0075H24.3232L38.5554 58.0425C41.6051 60.84 46.3293 60.6225 49.1174 57.555C49.977 56.6025 50.5526 55.4925 50.8441 54.3375L53.4902 56.775C56.525 59.5725 61.2641 59.37 64.0522 56.325C64.7548 55.56 65.2706 54.6675 65.592 53.745C68.6118 55.7775 72.723 55.3575 75.2645 52.575C78.0526 49.53 77.8508 44.775 74.816 41.9775L53.9162 22.755Z" fill="#2F7593"></path>
    <path d="M7.47487 9.99756C3.34874 9.99756 0 13.3576 0 17.5051V37.5076C0 41.6476 3.34874 45.0076 7.47487 45.0076V9.99756Z" fill="#0E3F66"></path>
  </g>
  <defs>
    <linearGradient id="paint0_linear_68_570" x1="33.0389" y1="22.5" x2="99.6774" y2="22.5" gradientUnits="userSpaceOnUse">
      <stop stop-color="#E69B87"></stop>
      <stop offset="0.26" stop-color="#E69883"></stop>
      <stop offset="0.5" stop-color="#E58E79"></stop>
      <stop offset="0.73" stop-color="#E47E66"></stop>
      <stop offset="0.95" stop-color="#E2684D"></stop>
      <stop offset="1" stop-color="#E26145"></stop>
    </linearGradient>
    <clipPath id="clip0_68_570">
      <rect width="99.6774" height="60" fill="white"></rect>
    </clipPath>
  </defs>
</svg>
