<svg width="95" height="115" viewBox="0 0 95 115" fill="none" xmlns="http://www.w3.org/2000/svg">
<path d="M57 91.0417H38C36.689 91.0417 35.625 92.115 35.625 93.4375C35.625 94.76 36.689 95.8333 38 95.8333H57C58.311 95.8333 59.375 94.76 59.375 93.4375C59.375 92.115 58.311 91.0417 57 91.0417ZM57 100.625H38C36.689 100.625 35.625 101.698 35.625 103.021C35.625 104.343 36.689 105.417 38 105.417H57C58.311 105.417 59.375 104.343 59.375 103.021C59.375 101.698 58.311 100.625 57 100.625ZM58.1875 110.208H36.8125L42.4555 113.955C43.187 114.617 44.2605 115 45.3768 115H49.628C50.7395 115 51.8177 114.617 52.5492 113.955L58.1875 110.208ZM76 44.0881C76 61.1896 60.7335 72.7567 60.7335 86.25H34.2665C34.2665 72.7567 19 61.1896 19 44.0881C19 26.2488 33.2405 16.4306 47.4857 16.4306C61.7405 16.4306 76 26.2583 76 44.0881ZM95 40.7771V47.3512H82.9445C83.0395 46.2827 83.125 45.2046 83.125 44.0881C83.125 42.9525 83.0443 41.8648 82.9587 40.7819H95V40.7771ZM44.422 9.37729V0H50.9342V9.41083C49.7847 9.30542 48.6353 9.24312 47.4857 9.24312C46.4645 9.24312 45.4433 9.29104 44.422 9.37729ZM70.6467 16.7756L78.1043 8.42375L82.9445 12.8225L75.3302 21.3373C74.1427 19.9142 72.5135 18.1173 70.6467 16.7756ZM19.6413 21.3373L12.027 12.8225L16.8673 8.42375L24.3247 16.7756C22.4627 18.1173 20.8288 19.9142 19.6413 21.3373ZM12.0555 47.3512H0V40.7771H12.0412C11.9557 41.86 11.875 42.9525 11.875 44.0881C11.875 45.2046 11.9605 46.2827 12.0555 47.3512Z" fill="#EE540C"/>
</svg>
