<svg width="442" height="111" viewBox="0 0 442 111" fill="none" xmlns="http://www.w3.org/2000/svg">
<path d="M38.3927 61.75H25.5951C24.7121 61.75 23.9954 62.478 23.9954 63.375C23.9954 64.272 24.7121 65 25.5951 65H38.3927C39.2757 65 39.9924 64.272 39.9924 63.375C39.9924 62.478 39.2757 61.75 38.3927 61.75ZM38.3927 68.25H25.5951C24.7121 68.25 23.9954 68.978 23.9954 69.875C23.9954 70.772 24.7121 71.5 25.5951 71.5H38.3927C39.2757 71.5 39.9924 70.772 39.9924 69.875C39.9924 68.978 39.2757 68.25 38.3927 68.25ZM39.1926 74.75H24.7953L28.5962 77.2915C29.0889 77.74 29.8119 78 30.5638 78H33.4272C34.1759 78 34.9022 77.74 35.3949 77.2915L39.1926 74.75ZM51.1903 29.9033C51.1903 41.5025 40.9074 49.348 40.9074 58.5H23.0804C23.0804 49.348 12.7976 41.5025 12.7976 29.9033C12.7976 17.8035 22.3893 11.1442 31.9843 11.1442C41.5857 11.1442 51.1903 17.81 51.1903 29.9033ZM63.9878 27.6575V32.1165H55.8678C55.9318 31.3918 55.9894 30.6605 55.9894 29.9033C55.9894 29.133 55.935 28.3953 55.8774 27.6607H63.9878V27.6575ZM29.9207 6.36025V0H34.3071V6.383C33.5328 6.3115 32.7586 6.26925 31.9843 6.26925C31.2965 6.26925 30.6086 6.30175 29.9207 6.36025ZM47.5846 11.3783L52.6076 5.7135L55.8678 8.697L50.7392 14.4723C49.9393 13.507 48.8419 12.2882 47.5846 11.3783ZM13.2295 14.4723L8.10086 8.697L11.361 5.7135L16.3841 11.3783C15.1299 12.2882 14.0293 13.507 13.2295 14.4723ZM8.12006 32.1165H0V27.6575H8.11046C8.05287 28.392 7.99848 29.133 7.99848 29.9033C7.99848 30.6605 8.05607 31.3918 8.12006 32.1165Z" fill="#EE540C"/>
<path d="M75.1104 74.8629C83.6472 74.8629 89.4908 70.3941 89.4908 63.6138V63.3056C89.4908 57.193 85.1716 54.0597 76.5332 52.5701C69.4193 51.3373 68.3522 49.8991 68.3522 47.5876V47.4849C68.3522 44.9166 70.3339 43.0674 74.399 43.0674C78.4641 43.0674 81.0048 44.9166 81.4114 48.6663H88.881C88.2712 41.1155 82.6309 37.0576 74.5515 37.0576C66.4213 37.0576 60.9334 41.2696 60.9334 47.6903V47.9985C60.9334 53.7001 64.3379 57.0903 73.1287 58.734C80.141 60.0695 82.0719 61.3537 82.0719 64.076V64.2815C82.0719 67.2607 79.5312 68.8017 75.3137 68.8017C70.7404 68.8017 67.6916 66.7471 67.1835 62.381H59.7138C60.1712 70.24 65.9131 74.8629 75.1104 74.8629Z" fill="black"/>
<path d="M100.549 74.1951V59.7613C100.549 55.087 102.582 52.7756 105.783 52.7756C108.73 52.7756 110.051 54.8302 110.051 58.6826V74.1951H117.165V59.7613C117.165 55.1898 119.045 52.7756 122.247 52.7756C125.143 52.7756 126.617 54.7275 126.617 58.6313V74.1951H133.731V57.2444C133.731 51.0805 131.088 47.0226 124.838 47.0226C121.027 47.0226 118.131 48.9231 116.301 52.0051C115.031 48.6663 112.338 47.0226 108.425 47.0226C104.36 47.0226 101.769 49.334 100.498 51.7482L100.295 47.6903H93.4352V74.1951H100.549Z" fill="black"/>
<path d="M146.316 74.8629C150.178 74.8629 153.226 73.0137 154.802 70.1372L155.056 74.1951H161.611V56.1143C161.611 50.5668 157.444 47.0226 150.381 47.0226C143.572 47.0226 138.948 50.2073 138.541 55.8575H145.249C145.503 53.5974 147.332 52.4674 150.228 52.4674C153.328 52.4674 154.751 53.8029 154.751 56.0116V57.5526L145.096 58.9395C140.32 59.6072 137.474 62.2782 137.474 66.7984C137.474 71.4727 141.031 74.8629 146.316 74.8629ZM148.45 69.4695C145.858 69.4695 144.334 68.3394 144.334 66.4389C144.334 64.5897 145.452 63.6651 147.637 63.3569L154.751 62.381V64.487C154.751 67.4148 151.905 69.4695 148.45 69.4695Z" fill="black"/>
<path d="M173.594 74.1951V61.405C173.594 56.7307 176.084 54.1624 180.81 54.1624C181.47 54.1624 182.283 54.2138 182.791 54.2652V47.3821C182.385 47.2794 181.724 47.228 181.216 47.228C177.354 47.228 174.763 49.6422 173.492 52.8269L173.34 47.6903H166.48V74.1951H173.594Z" fill="black"/>
<path d="M199.616 74.8629C201.141 74.8629 203.122 74.606 204.342 74.1951V68.699C203.631 68.9044 202.462 69.2126 201.192 69.2126C198.448 69.2126 197.431 68.2367 197.431 65.9252V52.9297H204.24V47.6903H197.431V39.2663H190.317V47.6903H185.439V52.9297H190.317V66.5416C190.317 71.9864 193.315 74.8629 199.616 74.8629Z" fill="black"/>
<path d="M223.504 74.8629C230.517 74.8629 234.887 69.1613 234.887 61.2509V60.5832C234.887 52.7756 230.669 47.0226 223.708 47.0226C219.846 47.0226 217.102 48.8718 215.527 51.2346V36.1844H208.362V74.1951H215.018L215.222 70.0345C216.39 72.3973 219.185 74.8629 223.504 74.8629ZM221.472 69.3154C217.458 69.3154 215.273 66.4389 215.273 61.2509V60.5832C215.273 55.3952 217.458 52.5187 221.472 52.5187C225.537 52.5187 227.671 55.3952 227.671 60.5832V61.2509C227.671 66.4389 225.537 69.3154 221.472 69.3154Z" fill="black"/>
<path d="M251.679 74.8629C259.809 74.8629 265.145 69.3154 265.145 61.2509V60.6345C265.145 52.5701 259.809 47.0226 251.679 47.0226C243.549 47.0226 238.213 52.5701 238.213 60.5832V61.2509C238.213 69.3154 243.549 74.8629 251.679 74.8629ZM251.679 69.264C247.512 69.264 245.429 66.4389 245.429 61.2509V60.5832C245.429 55.4466 247.512 52.6215 251.679 52.6215C255.846 52.6215 257.929 55.4466 257.929 60.6345V61.2509C257.929 66.4389 255.846 69.264 251.679 69.264Z" fill="black"/>
<path d="M281.85 74.8629C289.98 74.8629 295.316 69.3154 295.316 61.2509V60.6345C295.316 52.5701 289.98 47.0226 281.85 47.0226C273.72 47.0226 268.384 52.5701 268.384 60.5832V61.2509C268.384 69.3154 273.72 74.8629 281.85 74.8629ZM281.85 69.264C277.683 69.264 275.6 66.4389 275.6 61.2509V60.5832C275.6 55.4466 277.683 52.6215 281.85 52.6215C286.017 52.6215 288.1 55.4466 288.1 60.6345V61.2509C288.1 66.4389 286.017 69.264 281.85 69.264Z" fill="black"/>
<path d="M309.073 62.2269L316.695 74.1951H324.622L314.104 57.8608L324.216 47.6903H315.882L306.584 57.193V36.1844H299.47V74.1951H306.584V64.7438L309.073 62.2269Z" fill="black"/>
<path d="M336.694 74.8629C343.757 74.8629 348.228 71.37 348.228 66.1307C348.228 61.5078 345.23 59.1963 338.116 58.0662C333.645 57.3471 332.324 56.4739 332.324 54.8302C332.324 53.0838 333.899 52.0564 336.338 52.0564C338.98 52.0564 340.759 53.2892 341.064 55.6007H347.72C347.314 50.1559 343.198 47.0226 336.439 47.0226C330.037 47.0226 325.514 50.31 325.514 55.2925C325.514 60.0695 328.614 62.2269 335.322 63.3569C340.047 64.1788 341.267 65.1547 341.267 66.7984C341.267 68.699 339.437 69.7263 336.744 69.7263C333.848 69.7263 331.866 68.3908 331.46 65.7711H324.651C325.108 71.5241 329.376 74.8629 336.694 74.8629Z" fill="black"/>
<path d="M365.702 74.8629C373.73 74.8629 379.32 70.6509 379.32 64.2301V63.6651C379.32 59.1963 376.322 56.1143 372.46 55.087C375.763 53.9056 378.05 50.9778 378.05 47.3821V46.9199C378.05 40.9614 372.714 37.0576 365.702 37.0576C358.435 37.0576 352.948 41.6292 352.643 48.7177H359.807C360.011 45.1734 362.094 43.1188 365.753 43.1188C368.954 43.1188 370.936 44.9679 370.936 47.4849V48.0499C370.936 50.8237 368.751 52.416 365.6 52.416H362.043V58.1176H365.651C369.31 58.1176 371.596 59.9668 371.596 63.1001V63.6651C371.596 66.6957 369.31 68.6476 365.6 68.6476C361.738 68.6476 359.553 66.593 359.299 62.946H351.83C352.033 70.2913 357.368 74.8629 365.702 74.8629Z" fill="#EE540C"/>
<path d="M396.624 74.8629C404.449 74.8629 409.886 69.7263 409.886 62.4837V61.9187C409.886 55.0357 404.703 50.6182 398.301 50.6182C394.337 50.6182 391.289 52.2619 389.612 54.9843V53.957C389.612 46.3548 392.305 43.0674 396.726 43.0674C399.774 43.0674 401.807 44.7111 402.417 47.5876H409.632C408.769 41.0641 403.89 37.0576 396.675 37.0576C388.036 37.0576 382.599 43.5811 382.599 55.2411V57.0903C382.599 68.3394 387.935 74.8629 396.624 74.8629ZM396.624 68.9044C393.016 68.9044 390.831 66.3361 390.831 62.7405V62.2269C390.831 58.8367 393.067 56.4225 396.573 56.4225C400.029 56.4225 402.214 58.8367 402.214 62.1755V62.7405C402.214 66.4389 400.13 68.9044 396.624 68.9044Z" fill="#EE540C"/>
<path d="M427.382 74.8629C436.732 74.8629 441 67.4148 441 56.4739V55.4466C441 44.557 436.732 37.0576 427.382 37.0576C418.337 37.0576 413.815 44.557 413.815 55.4466V56.4739C413.815 67.4148 418.337 74.8629 427.382 74.8629ZM427.382 68.7503C423.012 68.7503 421.538 64.8979 421.538 56.628V55.3952C421.538 47.074 423.012 43.1701 427.382 43.1701C432.057 43.1701 433.276 47.074 433.276 55.3952V56.628C433.276 64.8979 432.057 68.7503 427.382 68.7503Z" fill="#EE540C"/>
<path d="M11.92 107.24C14.32 107.24 15.98 106 15.98 104.08C15.98 102.28 14.62 101.5 12.24 101.1C10.22 100.78 9.6 100.34 9.6 99.38C9.6 98.4 10.46 97.8 11.78 97.8C13.08 97.8 14 98.42 14.18 99.62H15.76C15.54 97.62 14.06 96.5 11.78 96.5C9.56 96.5 8.02 97.68 8.02 99.46C8.02 101.28 9.24 102 11.62 102.44C13.68 102.8 14.36 103.26 14.36 104.24C14.36 105.36 13.4 105.94 11.96 105.94C10.4 105.94 9.44 105.32 9.2 103.86H7.66C7.86 106.06 9.5 107.24 11.92 107.24Z" fill="black"/>
<path d="M21.3275 107.24C22.8275 107.24 23.9475 106.48 24.5675 105.38L24.5875 107H26.1475V96.74H24.5475V102.5C24.5475 104.48 23.5475 105.84 21.7875 105.84C20.0675 105.84 19.4075 104.78 19.4075 103.06V96.74H17.8075V103.36C17.8075 105.76 18.9675 107.24 21.3275 107.24Z" fill="black"/>
<path d="M30.1516 110.4V105.32C30.7116 106.34 31.8916 107.24 33.6316 107.24C36.3116 107.24 38.0516 105.14 38.0516 102.06V101.68C38.0516 98.58 36.3116 96.5 33.6516 96.5C31.8316 96.5 30.6116 97.5 30.0916 98.58L30.0516 96.74H28.5516V110.4H30.1516ZM33.3516 105.88C31.2716 105.88 30.0916 104.46 30.0916 102.06V101.68C30.0916 99.3 31.2516 97.86 33.3716 97.86C35.2916 97.86 36.4116 99.3 36.4116 101.68V102.06C36.4116 104.44 35.2916 105.88 33.3516 105.88Z" fill="black"/>
<path d="M41.6164 110.4V105.32C42.1764 106.34 43.3564 107.24 45.0964 107.24C47.7764 107.24 49.5164 105.14 49.5164 102.06V101.68C49.5164 98.58 47.7764 96.5 45.1164 96.5C43.2964 96.5 42.0764 97.5 41.5564 98.58L41.5164 96.74H40.0164V110.4H41.6164ZM44.8164 105.88C42.7364 105.88 41.5564 104.46 41.5564 102.06V101.68C41.5564 99.3 42.7164 97.86 44.8364 97.86C46.7564 97.86 47.8764 99.3 47.8764 101.68V102.06C47.8764 104.44 46.7564 105.88 44.8164 105.88Z" fill="black"/>
<path d="M55.9012 107.24C58.8812 107.24 60.7812 105.2 60.7812 102.06V101.68C60.7812 98.54 58.8812 96.5 55.9012 96.5C52.9212 96.5 51.0412 98.54 51.0412 101.68V102.06C51.0412 105.2 52.9212 107.24 55.9012 107.24ZM55.9012 105.88C53.8212 105.88 52.6813 104.46 52.6813 102.06V101.68C52.6813 99.28 53.8212 97.86 55.9012 97.86C58.0012 97.86 59.1413 99.28 59.1413 101.68V102.06C59.1413 104.46 58.0012 105.88 55.9012 105.88Z" fill="black"/>
<path d="M64.3508 107V101.5C64.3508 99.26 65.6108 98.12 67.4708 98.12C67.6908 98.12 67.8308 98.12 68.0508 98.14V96.54C67.8508 96.5 67.6708 96.5 67.5108 96.5C66.0908 96.5 64.9508 97.3 64.3308 98.72L64.3108 96.74H62.7508V107H64.3508Z" fill="black"/>
<path d="M74.275 107.24C74.715 107.24 75.355 107.14 75.775 107.04V105.68C75.435 105.78 74.875 105.88 74.475 105.88C73.135 105.88 72.755 105.34 72.755 104.2V98.02H75.695V96.74H72.755V93.58H71.155V96.74H69.095V98.02H71.155V104.42C71.155 106.3 72.235 107.24 74.275 107.24Z" fill="black"/>
<path d="M86.395 93.12C81.075 93.12 77.195 96.9 77.195 102.3C77.195 107.56 80.635 110.64 85.415 110.64C86.315 110.64 87.095 110.56 87.575 110.34V108.98C87.135 109.18 86.355 109.28 85.415 109.28C81.495 109.3 78.715 107 78.715 102.3C78.715 97.44 81.975 94.44 86.395 94.44C90.315 94.44 93.315 96.82 93.315 100.88C93.315 103.68 92.115 105.4 90.735 105.4C90.155 105.4 89.895 105.12 89.955 104.42L90.715 97.18H89.215L88.935 98.62C88.495 97.74 87.435 96.96 85.915 96.96C83.455 96.96 81.575 98.74 81.255 101.48L81.215 101.84C80.835 104.98 82.595 106.76 84.975 106.76C86.575 106.76 87.735 105.96 88.335 105.02C88.395 106.2 89.295 106.76 90.435 106.76C92.935 106.76 94.775 104.3 94.775 100.88C94.775 96.34 91.135 93.12 86.395 93.12ZM88.655 102.04C88.395 104.2 87.275 105.38 85.395 105.38C83.615 105.38 82.635 104.14 82.915 101.86L82.955 101.54C83.195 99.5 84.315 98.36 86.115 98.36C87.955 98.36 88.935 99.54 88.695 101.7L88.655 102.04Z" fill="black"/>
<path d="M100.514 107.24C102.914 107.24 104.574 106 104.574 104.08C104.574 102.28 103.214 101.5 100.834 101.1C98.8137 100.78 98.1937 100.34 98.1937 99.38C98.1937 98.4 99.0537 97.8 100.374 97.8C101.674 97.8 102.594 98.42 102.774 99.62H104.354C104.134 97.62 102.654 96.5 100.374 96.5C98.1537 96.5 96.6137 97.68 96.6137 99.46C96.6137 101.28 97.8338 102 100.214 102.44C102.274 102.8 102.954 103.26 102.954 104.24C102.954 105.36 101.994 105.94 100.554 105.94C98.9937 105.94 98.0337 105.32 97.7937 103.86H96.2538C96.4538 106.06 98.0937 107.24 100.514 107.24Z" fill="black"/>
<path d="M108.081 107V101.24C108.081 99.16 109.121 97.88 110.821 97.88C112.381 97.88 113.041 98.84 113.041 100.66V107H114.641V101.2C114.641 99.16 115.641 97.88 117.341 97.88C118.901 97.88 119.601 98.82 119.601 100.66V107H121.201V100.32C121.201 97.94 120.061 96.5 117.801 96.5C116.261 96.5 115.101 97.24 114.381 98.54C113.901 97.24 112.861 96.5 111.301 96.5C109.681 96.5 108.621 97.34 108.061 98.36L108.041 96.74H106.481V107H108.081Z" fill="black"/>
<path d="M126.452 107.24C127.892 107.24 129.212 106.6 129.872 105.4L129.932 107H131.432V100.04C131.432 97.92 130.012 96.5 127.512 96.5C125.132 96.5 123.592 97.7 123.412 99.74H124.973C125.093 98.5 126.073 97.8 127.493 97.8C128.813 97.8 129.852 98.46 129.852 99.94V100.84L125.533 101.48C123.893 101.72 123.012 102.84 123.012 104.32C123.012 106.04 124.312 107.24 126.452 107.24ZM126.613 105.9C125.313 105.9 124.632 105.26 124.632 104.28C124.632 103.4 125.072 102.84 126.052 102.7L129.852 102.14V103.2C129.852 104.76 128.333 105.9 126.613 105.9Z" fill="black"/>
<path d="M135.347 107V101.5C135.347 99.26 136.607 98.12 138.467 98.12C138.687 98.12 138.827 98.12 139.047 98.14V96.54C138.847 96.5 138.667 96.5 138.507 96.5C137.087 96.5 135.947 97.3 135.327 98.72L135.307 96.74H133.747V107H135.347Z" fill="black"/>
<path d="M145.271 107.24C145.711 107.24 146.351 107.14 146.771 107.04V105.68C146.431 105.78 145.871 105.88 145.471 105.88C144.131 105.88 143.751 105.34 143.751 104.2V98.02H146.691V96.74H143.751V93.58H142.151V96.74H140.091V98.02H142.151V104.42C142.151 106.3 143.231 107.24 145.271 107.24Z" fill="black"/>
<path d="M153.651 107.24C156.291 107.24 158.071 105.14 158.071 102.06V101.68C158.071 98.6 156.351 96.5 153.671 96.5C151.911 96.5 150.731 97.38 150.171 98.4V92.2H148.571V107H150.071L150.111 105.2C150.631 106.26 151.851 107.24 153.651 107.24ZM153.391 105.88C151.271 105.88 150.111 104.44 150.111 102.06V101.68C150.111 99.28 151.291 97.86 153.371 97.86C155.311 97.86 156.431 99.3 156.431 101.68V102.06C156.431 104.42 155.311 105.88 153.391 105.88Z" fill="black"/>
<path d="M164.456 107.24C167.436 107.24 169.336 105.2 169.336 102.06V101.68C169.336 98.54 167.436 96.5 164.456 96.5C161.476 96.5 159.596 98.54 159.596 101.68V102.06C159.596 105.2 161.476 107.24 164.456 107.24ZM164.456 105.88C162.376 105.88 161.236 104.46 161.236 102.06V101.68C161.236 99.28 162.376 97.86 164.456 97.86C166.556 97.86 167.696 99.28 167.696 101.68V102.06C167.696 104.46 166.556 105.88 164.456 105.88Z" fill="black"/>
<path d="M175.725 107.24C178.705 107.24 180.605 105.2 180.605 102.06V101.68C180.605 98.54 178.705 96.5 175.725 96.5C172.745 96.5 170.865 98.54 170.865 101.68V102.06C170.865 105.2 172.745 107.24 175.725 107.24ZM175.725 105.88C173.645 105.88 172.505 104.46 172.505 102.06V101.68C172.505 99.28 173.645 97.86 175.725 97.86C177.825 97.86 178.965 99.28 178.965 101.68V102.06C178.965 104.46 177.825 105.88 175.725 105.88Z" fill="black"/>
<path d="M185.215 102.04L188.815 107H190.715L186.375 101.02L190.595 96.74H188.595L184.175 101.3V92.2H182.575V107H184.175V103.12L185.215 102.04Z" fill="black"/>
<path d="M195.436 107.24C197.836 107.24 199.496 106 199.496 104.08C199.496 102.28 198.136 101.5 195.756 101.1C193.736 100.78 193.116 100.34 193.116 99.38C193.116 98.4 193.976 97.8 195.296 97.8C196.596 97.8 197.516 98.42 197.696 99.62H199.276C199.056 97.62 197.576 96.5 195.296 96.5C193.076 96.5 191.536 97.68 191.536 99.46C191.536 101.28 192.756 102 195.136 102.44C197.196 102.8 197.876 103.26 197.876 104.24C197.876 105.36 196.916 105.94 195.476 105.94C193.916 105.94 192.956 105.32 192.716 103.86H191.176C191.376 106.06 193.016 107.24 195.436 107.24Z" fill="black"/>
<path d="M206.423 107.24C209.243 107.24 211.383 105.54 211.383 103.14V102.9C211.383 101.12 210.223 99.94 208.623 99.58C209.983 99.14 210.923 98.06 210.923 96.54V96.3C210.923 94.08 209.003 92.56 206.463 92.56C203.643 92.56 201.723 94.3 201.603 96.92H203.243C203.363 95.06 204.563 93.96 206.483 93.96C208.063 93.96 209.323 94.92 209.323 96.3V96.66C209.323 98.18 208.023 98.98 206.523 98.98H205.063V100.38H206.563C208.363 100.38 209.743 101.18 209.743 102.8V103.16C209.743 104.8 208.223 105.8 206.463 105.8C204.423 105.8 203.123 104.78 202.943 102.88H201.263C201.443 105.6 203.383 107.24 206.423 107.24Z" fill="black"/>
<path d="M218.613 107.24C221.433 107.24 223.473 105.24 223.473 102.54V102.3C223.473 99.58 221.413 97.86 218.873 97.86C217.033 97.86 215.633 98.8 215.033 99.98V99.66C215.033 95.36 216.353 94.04 218.633 94.04C220.233 94.04 221.353 94.92 221.613 96.44H223.353C222.973 94.04 221.193 92.56 218.633 92.56C215.293 92.56 213.393 95.14 213.393 99.5V100.22C213.393 104.84 215.453 107.24 218.613 107.24ZM218.633 105.82C216.753 105.82 215.373 104.48 215.373 102.62V102.3C215.373 100.54 216.733 99.26 218.633 99.26C220.513 99.26 221.773 100.44 221.773 102.26V102.62C221.773 104.56 220.433 105.82 218.633 105.82Z" fill="black"/>
<path d="M230.464 107.24C233.764 107.24 235.684 104.68 235.684 100.1V99.7C235.684 95.16 233.744 92.56 230.464 92.56C227.204 92.56 225.264 95.16 225.264 99.7V100.1C225.264 104.68 227.184 107.24 230.464 107.24ZM230.464 105.8C228.304 105.8 227.004 104.02 227.004 100.26V99.54C227.004 95.8 228.304 94 230.464 94C232.644 94 233.944 95.8 233.944 99.54V100.26C233.944 104.02 232.644 105.8 230.464 105.8Z" fill="black"/>
<path d="M238.79 107V104.94H236.91V107H238.79Z" fill="black"/>
<path d="M245.45 107.24C247.91 107.24 249.51 105.8 249.89 103.52H248.29C248.01 104.94 247.05 105.88 245.45 105.88C243.43 105.88 242.33 104.48 242.33 102.06V101.68C242.33 99.26 243.43 97.86 245.43 97.86C247.05 97.86 247.95 98.74 248.23 100.16H249.83C249.55 97.96 247.95 96.5 245.47 96.5C242.41 96.5 240.69 98.62 240.69 101.68V102.06C240.69 105.1 242.41 107.24 245.45 107.24Z" fill="black"/>
<path d="M256.077 107.24C259.057 107.24 260.957 105.2 260.957 102.06V101.68C260.957 98.54 259.057 96.5 256.077 96.5C253.097 96.5 251.217 98.54 251.217 101.68V102.06C251.217 105.2 253.097 107.24 256.077 107.24ZM256.077 105.88C253.997 105.88 252.857 104.46 252.857 102.06V101.68C252.857 99.28 253.997 97.86 256.077 97.86C258.177 97.86 259.317 99.28 259.317 101.68V102.06C259.317 104.46 258.177 105.88 256.077 105.88Z" fill="black"/>
<path d="M264.527 107V101.24C264.527 99.16 265.567 97.88 267.267 97.88C268.827 97.88 269.487 98.84 269.487 100.66V107H271.087V101.2C271.087 99.16 272.087 97.88 273.787 97.88C275.347 97.88 276.047 98.82 276.047 100.66V107H277.647V100.32C277.647 97.94 276.507 96.5 274.247 96.5C272.707 96.5 271.547 97.24 270.827 98.54C270.347 97.24 269.307 96.5 267.747 96.5C266.127 96.5 265.067 97.34 264.507 98.36L264.487 96.74H262.927V107H264.527Z" fill="black"/>
<path d="M290.691 103.12C291.711 103.12 292.491 102.44 292.491 101.3C292.491 100.12 291.711 99.46 290.691 99.46C289.651 99.46 288.891 100.12 288.891 101.3C288.891 102.44 289.651 103.12 290.691 103.12Z" fill="black"/>
<path d="M308.225 109.58C306.605 107.14 305.525 103.86 305.525 100.88C305.525 97.9 306.605 94.64 308.225 92.2H306.565C304.925 94.44 303.725 97.7 303.725 100.88C303.725 104.12 304.945 107.38 306.565 109.58H308.225Z" fill="black"/>
<path d="M314.841 107.24C317.661 107.24 319.801 105.54 319.801 103.14V102.9C319.801 101.12 318.641 99.94 317.041 99.58C318.401 99.14 319.341 98.06 319.341 96.54V96.3C319.341 94.08 317.421 92.56 314.881 92.56C312.061 92.56 310.141 94.3 310.021 96.92H311.661C311.781 95.06 312.981 93.96 314.901 93.96C316.481 93.96 317.741 94.92 317.741 96.3V96.66C317.741 98.18 316.441 98.98 314.941 98.98H313.481V100.38H314.981C316.781 100.38 318.161 101.18 318.161 102.8V103.16C318.161 104.8 316.641 105.8 314.881 105.8C312.841 105.8 311.541 104.78 311.361 102.88H309.681C309.861 105.6 311.801 107.24 314.841 107.24Z" fill="black"/>
<path d="M329.632 107V103.38H331.672V101.96H329.632V92.8H327.992L321.252 101.96V103.38H328.052V107H329.632ZM328.052 94.98V101.98H322.932L328.052 94.98Z" fill="black"/>
<path d="M336.287 107C337.027 102.44 338.967 98.2 342.167 94.1V92.8H332.507V94.28H340.347C337.227 98.34 335.287 102.52 334.507 107H336.287Z" fill="black"/>
<path d="M344.764 109.58C346.364 107.38 347.584 104.12 347.584 100.88C347.584 97.7 346.384 94.44 344.764 92.2H343.084C344.704 94.64 345.784 97.9 345.784 100.88C345.784 103.86 344.704 107.14 343.084 109.58H344.764Z" fill="black"/>
<path d="M361.526 107V103.38H363.566V101.96H361.526V92.8H359.886L353.146 101.96V103.38H359.946V107H361.526ZM359.946 94.98V101.98H354.826L359.946 94.98Z" fill="black"/>
<path d="M368.181 107C368.921 102.44 370.861 98.2 374.061 94.1V92.8H364.401V94.28H372.241C369.121 98.34 367.181 102.52 366.401 107H368.181Z" fill="black"/>
<path d="M379.995 107.24C383.295 107.24 385.215 104.68 385.215 100.1V99.7C385.215 95.16 383.275 92.56 379.995 92.56C376.735 92.56 374.795 95.16 374.795 99.7V100.1C374.795 104.68 376.715 107.24 379.995 107.24ZM379.995 105.8C377.835 105.8 376.535 104.02 376.535 100.26V99.54C376.535 95.8 377.835 94 379.995 94C382.175 94 383.475 95.8 383.475 99.54V100.26C383.475 104.02 382.175 105.8 379.995 105.8Z" fill="black"/>
<path d="M393.247 101.98V100.5H387.067V101.98H393.247Z" fill="black"/>
<path d="M399.796 107.24C403.136 107.24 405.036 104.66 405.036 100.3V99.56C405.036 94.94 402.976 92.56 399.816 92.56C396.996 92.56 394.956 94.56 394.956 97.26V97.5C394.956 100.22 397.016 101.94 399.536 101.94C401.396 101.94 402.776 101 403.396 99.82V100.14C403.396 104.44 402.076 105.76 399.796 105.76C398.156 105.76 397.036 104.86 396.816 103.36H395.096C395.456 105.76 397.236 107.24 399.796 107.24ZM399.796 100.54C397.936 100.54 396.656 99.36 396.656 97.54V97.18C396.656 95.22 397.996 93.98 399.796 93.98C401.676 93.98 403.056 95.32 403.056 97.18V97.5C403.056 99.26 401.696 100.54 399.796 100.54Z" fill="black"/>
<path d="M412.281 107.24C415.581 107.24 417.501 104.68 417.501 100.1V99.7C417.501 95.16 415.561 92.56 412.281 92.56C409.021 92.56 407.081 95.16 407.081 99.7V100.1C407.081 104.68 409.001 107.24 412.281 107.24ZM412.281 105.8C410.121 105.8 408.821 104.02 408.821 100.26V99.54C408.821 95.8 410.121 94 412.281 94C414.461 94 415.761 95.8 415.761 99.54V100.26C415.761 104.02 414.461 105.8 412.281 105.8Z" fill="black"/>
<path d="M424.765 107.24C427.585 107.24 429.625 105.24 429.625 102.54V102.3C429.625 99.58 427.565 97.86 425.025 97.86C423.185 97.86 421.785 98.8 421.185 99.98V99.66C421.185 95.36 422.505 94.04 424.785 94.04C426.385 94.04 427.505 94.92 427.765 96.44H429.505C429.125 94.04 427.345 92.56 424.785 92.56C421.445 92.56 419.545 95.14 419.545 99.5V100.22C419.545 104.84 421.605 107.24 424.765 107.24ZM424.785 105.82C422.905 105.82 421.525 104.48 421.525 102.62V102.3C421.525 100.54 422.885 99.26 424.785 99.26C426.665 99.26 427.925 100.44 427.925 102.26V102.62C427.925 104.56 426.585 105.82 424.785 105.82Z" fill="black"/>
<path d="M436.632 107.24C439.972 107.24 441.872 104.66 441.872 100.3V99.56C441.872 94.94 439.812 92.56 436.652 92.56C433.832 92.56 431.792 94.56 431.792 97.26V97.5C431.792 100.22 433.852 101.94 436.372 101.94C438.232 101.94 439.612 101 440.232 99.82V100.14C440.232 104.44 438.912 105.76 436.632 105.76C434.992 105.76 433.872 104.86 433.652 103.36H431.932C432.292 105.76 434.072 107.24 436.632 107.24ZM436.632 100.54C434.772 100.54 433.492 99.36 433.492 97.54V97.18C433.492 95.22 434.832 93.98 436.632 93.98C438.512 93.98 439.892 95.32 439.892 97.18V97.5C439.892 99.26 438.532 100.54 436.632 100.54Z" fill="black"/>
</svg>
