<svg width="441" height="78" viewBox="0 0 441 78" fill="none" xmlns="http://www.w3.org/2000/svg">
<path d="M38.3927 61.75H25.5951C24.7121 61.75 23.9954 62.478 23.9954 63.375C23.9954 64.272 24.7121 65 25.5951 65H38.3927C39.2757 65 39.9924 64.272 39.9924 63.375C39.9924 62.478 39.2757 61.75 38.3927 61.75ZM38.3927 68.25H25.5951C24.7121 68.25 23.9954 68.978 23.9954 69.875C23.9954 70.772 24.7121 71.5 25.5951 71.5H38.3927C39.2757 71.5 39.9924 70.772 39.9924 69.875C39.9924 68.978 39.2757 68.25 38.3927 68.25ZM39.1926 74.75H24.7953L28.5962 77.2915C29.0889 77.74 29.8119 78 30.5638 78H33.4272C34.1759 78 34.9022 77.74 35.3949 77.2915L39.1926 74.75ZM51.1903 29.9033C51.1903 41.5025 40.9074 49.348 40.9074 58.5H23.0804C23.0804 49.348 12.7976 41.5025 12.7976 29.9033C12.7976 17.8035 22.3893 11.1442 31.9843 11.1442C41.5857 11.1442 51.1903 17.81 51.1903 29.9033ZM63.9878 27.6575V32.1165H55.8678C55.9318 31.3918 55.9894 30.6605 55.9894 29.9033C55.9894 29.133 55.935 28.3953 55.8774 27.6607H63.9878V27.6575ZM29.9207 6.36025V0H34.3071V6.383C33.5328 6.3115 32.7586 6.26925 31.9843 6.26925C31.2965 6.26925 30.6086 6.30175 29.9207 6.36025ZM47.5846 11.3783L52.6076 5.7135L55.8678 8.697L50.7392 14.4723C49.9393 13.507 48.8419 12.2882 47.5846 11.3783ZM13.2295 14.4723L8.10086 8.697L11.361 5.7135L16.3841 11.3783C15.1299 12.2882 14.0293 13.507 13.2295 14.4723ZM8.12006 32.1165H0V27.6575H8.11046C8.05287 28.392 7.99848 29.133 7.99848 29.9033C7.99848 30.6605 8.05607 31.3918 8.12006 32.1165Z" fill="#EE540C"/>
<path d="M75.1104 74.8629C83.6472 74.8629 89.4908 70.3941 89.4908 63.6138V63.3056C89.4908 57.193 85.1716 54.0597 76.5332 52.5701C69.4193 51.3373 68.3522 49.8991 68.3522 47.5876V47.4849C68.3522 44.9166 70.3339 43.0674 74.399 43.0674C78.4641 43.0674 81.0048 44.9166 81.4114 48.6663H88.881C88.2712 41.1155 82.6309 37.0576 74.5515 37.0576C66.4213 37.0576 60.9334 41.2696 60.9334 47.6903V47.9985C60.9334 53.7001 64.3379 57.0903 73.1287 58.734C80.141 60.0695 82.0719 61.3537 82.0719 64.076V64.2815C82.0719 67.2607 79.5312 68.8017 75.3137 68.8017C70.7404 68.8017 67.6916 66.7471 67.1835 62.381H59.7138C60.1712 70.24 65.9131 74.8629 75.1104 74.8629Z" fill="black"/>
<path d="M100.549 74.1951V59.7613C100.549 55.087 102.582 52.7756 105.783 52.7756C108.73 52.7756 110.051 54.8302 110.051 58.6826V74.1951H117.165V59.7613C117.165 55.1898 119.045 52.7756 122.247 52.7756C125.143 52.7756 126.617 54.7275 126.617 58.6313V74.1951H133.731V57.2444C133.731 51.0805 131.088 47.0226 124.838 47.0226C121.027 47.0226 118.131 48.9231 116.301 52.0051C115.031 48.6663 112.338 47.0226 108.425 47.0226C104.36 47.0226 101.769 49.334 100.498 51.7482L100.295 47.6903H93.4352V74.1951H100.549Z" fill="black"/>
<path d="M146.316 74.8629C150.178 74.8629 153.226 73.0137 154.802 70.1372L155.056 74.1951H161.611V56.1143C161.611 50.5668 157.444 47.0226 150.381 47.0226C143.572 47.0226 138.948 50.2073 138.541 55.8575H145.249C145.503 53.5974 147.332 52.4674 150.228 52.4674C153.328 52.4674 154.751 53.8029 154.751 56.0116V57.5526L145.096 58.9395C140.32 59.6072 137.474 62.2782 137.474 66.7984C137.474 71.4727 141.031 74.8629 146.316 74.8629ZM148.45 69.4695C145.858 69.4695 144.334 68.3394 144.334 66.4389C144.334 64.5897 145.452 63.6651 147.637 63.3569L154.751 62.381V64.487C154.751 67.4148 151.905 69.4695 148.45 69.4695Z" fill="black"/>
<path d="M173.594 74.1951V61.405C173.594 56.7307 176.084 54.1624 180.81 54.1624C181.47 54.1624 182.283 54.2138 182.791 54.2652V47.3821C182.385 47.2794 181.724 47.228 181.216 47.228C177.354 47.228 174.763 49.6422 173.492 52.8269L173.34 47.6903H166.48V74.1951H173.594Z" fill="black"/>
<path d="M199.616 74.8629C201.141 74.8629 203.122 74.606 204.342 74.1951V68.699C203.631 68.9044 202.462 69.2126 201.192 69.2126C198.448 69.2126 197.431 68.2367 197.431 65.9252V52.9297H204.24V47.6903H197.431V39.2663H190.317V47.6903H185.439V52.9297H190.317V66.5416C190.317 71.9864 193.315 74.8629 199.616 74.8629Z" fill="black"/>
<path d="M223.504 74.8629C230.517 74.8629 234.887 69.1613 234.887 61.2509V60.5832C234.887 52.7756 230.669 47.0226 223.708 47.0226C219.846 47.0226 217.102 48.8718 215.527 51.2346V36.1844H208.362V74.1951H215.018L215.222 70.0345C216.39 72.3973 219.185 74.8629 223.504 74.8629ZM221.472 69.3154C217.458 69.3154 215.273 66.4389 215.273 61.2509V60.5832C215.273 55.3952 217.458 52.5187 221.472 52.5187C225.537 52.5187 227.671 55.3952 227.671 60.5832V61.2509C227.671 66.4389 225.537 69.3154 221.472 69.3154Z" fill="black"/>
<path d="M251.679 74.8629C259.809 74.8629 265.145 69.3154 265.145 61.2509V60.6345C265.145 52.5701 259.809 47.0226 251.679 47.0226C243.549 47.0226 238.213 52.5701 238.213 60.5832V61.2509C238.213 69.3154 243.549 74.8629 251.679 74.8629ZM251.679 69.264C247.512 69.264 245.429 66.4389 245.429 61.2509V60.5832C245.429 55.4466 247.512 52.6215 251.679 52.6215C255.846 52.6215 257.929 55.4466 257.929 60.6345V61.2509C257.929 66.4389 255.846 69.264 251.679 69.264Z" fill="black"/>
<path d="M281.85 74.8629C289.98 74.8629 295.316 69.3154 295.316 61.2509V60.6345C295.316 52.5701 289.98 47.0226 281.85 47.0226C273.72 47.0226 268.384 52.5701 268.384 60.5832V61.2509C268.384 69.3154 273.72 74.8629 281.85 74.8629ZM281.85 69.264C277.683 69.264 275.6 66.4389 275.6 61.2509V60.5832C275.6 55.4466 277.683 52.6215 281.85 52.6215C286.017 52.6215 288.1 55.4466 288.1 60.6345V61.2509C288.1 66.4389 286.017 69.264 281.85 69.264Z" fill="black"/>
<path d="M309.073 62.2269L316.695 74.1951H324.622L314.104 57.8608L324.216 47.6903H315.882L306.584 57.193V36.1844H299.47V74.1951H306.584V64.7438L309.073 62.2269Z" fill="black"/>
<path d="M336.694 74.8629C343.757 74.8629 348.228 71.37 348.228 66.1307C348.228 61.5078 345.23 59.1963 338.116 58.0662C333.645 57.3471 332.324 56.4739 332.324 54.8302C332.324 53.0838 333.899 52.0564 336.338 52.0564C338.98 52.0564 340.759 53.2892 341.064 55.6007H347.72C347.314 50.1559 343.198 47.0226 336.439 47.0226C330.037 47.0226 325.514 50.31 325.514 55.2925C325.514 60.0695 328.614 62.2269 335.322 63.3569C340.047 64.1788 341.267 65.1547 341.267 66.7984C341.267 68.699 339.437 69.7263 336.744 69.7263C333.848 69.7263 331.866 68.3908 331.46 65.7711H324.651C325.108 71.5241 329.376 74.8629 336.694 74.8629Z" fill="black"/>
<path d="M365.702 74.8629C373.73 74.8629 379.32 70.6509 379.32 64.2301V63.6651C379.32 59.1963 376.322 56.1143 372.46 55.087C375.763 53.9056 378.05 50.9778 378.05 47.3821V46.9199C378.05 40.9614 372.714 37.0576 365.702 37.0576C358.435 37.0576 352.948 41.6292 352.643 48.7177H359.807C360.011 45.1734 362.094 43.1188 365.753 43.1188C368.954 43.1188 370.936 44.9679 370.936 47.4849V48.0499C370.936 50.8237 368.751 52.416 365.6 52.416H362.043V58.1176H365.651C369.31 58.1176 371.596 59.9668 371.596 63.1001V63.6651C371.596 66.6957 369.31 68.6476 365.6 68.6476C361.738 68.6476 359.553 66.593 359.299 62.946H351.83C352.033 70.2913 357.368 74.8629 365.702 74.8629Z" fill="#EE540C"/>
<path d="M396.624 74.8629C404.449 74.8629 409.886 69.7263 409.886 62.4837V61.9187C409.886 55.0357 404.703 50.6182 398.301 50.6182C394.337 50.6182 391.289 52.2619 389.612 54.9843V53.957C389.612 46.3548 392.305 43.0674 396.726 43.0674C399.774 43.0674 401.807 44.7111 402.417 47.5876H409.632C408.769 41.0641 403.89 37.0576 396.675 37.0576C388.036 37.0576 382.599 43.5811 382.599 55.2411V57.0903C382.599 68.3394 387.935 74.8629 396.624 74.8629ZM396.624 68.9044C393.016 68.9044 390.831 66.3361 390.831 62.7405V62.2269C390.831 58.8367 393.067 56.4225 396.573 56.4225C400.029 56.4225 402.214 58.8367 402.214 62.1755V62.7405C402.214 66.4389 400.13 68.9044 396.624 68.9044Z" fill="#EE540C"/>
<path d="M427.382 74.8629C436.732 74.8629 441 67.4148 441 56.4739V55.4466C441 44.557 436.732 37.0576 427.382 37.0576C418.337 37.0576 413.815 44.557 413.815 55.4466V56.4739C413.815 67.4148 418.337 74.8629 427.382 74.8629ZM427.382 68.7503C423.012 68.7503 421.538 64.8979 421.538 56.628V55.3952C421.538 47.074 423.012 43.1701 427.382 43.1701C432.057 43.1701 433.276 47.074 433.276 55.3952V56.628C433.276 64.8979 432.057 68.7503 427.382 68.7503Z" fill="#EE540C"/>
</svg>
